<svg id="Laag_1" data-name="Laag 1" xmlns="http://www.w3.org/2000/svg" viewBox="0 0 167.68 76.53"><defs><style>.cls-1{fill:#3c3c3b;}.cls-2{fill:#951b81;}.cls-3{fill:#d7007f;}.cls-4{fill:#702283;}.cls-5{fill:#de5197;}.cls-6{fill:#554596;}.cls-7{fill:#f59e00;}.cls-8{fill:#2faaaf;}.cls-9{fill:#0bbbef;}.cls-10{fill:#6dcaf3;}.cls-11{fill:#2581c4;}.cls-12{fill:#0f81b7;}.cls-13{fill:#312783;}.cls-14{fill:#ec6907;}.cls-15{fill:#ea4d47;}.cls-16{fill:#6ebbbf;}.cls-17{fill:#a5c715;}.cls-18{fill:#d3d80e;}.cls-19{fill:#e73339;}</style></defs><title>KEMBIT_logo_CMYK</title><path class="cls-1" d="M67,35.31h4.21v8.52h.06l6.86-8.52h5l-8,9.48,8.46,10.54H78.34l-7.06-9.16h-.06v9.16H67Z" transform="translate(-1.2 -4.25)"/><path class="cls-1" d="M85.76,35.31h13v3.21H90v4.89h8.29v3.21H90v5.51h9v3.2H85.76Z" transform="translate(-1.2 -4.25)"/><path class="cls-1" d="M107.53,42.26a32.12,32.12,0,0,1-1-3.85h-.25c0,.76.06,1.46.06,2.16V55.33h-3.88v-20H109l3.71,11.14a31.22,31.22,0,0,1,.87,3.48h.17a33.62,33.62,0,0,1,.87-3.48l3.71-11.14h6.55v20H121V40.57c0-.7,0-1.4.06-2.16h-.25a30.3,30.3,0,0,1-1,3.85l-4.47,13.07H112Z" transform="translate(-1.2 -4.25)"/><path class="cls-1" d="M129,35.31h8.16c4.55,0,6.27,2.34,6.27,5.06a4.35,4.35,0,0,1-3.63,4.53V45a4.67,4.67,0,0,1,4.16,4.83c0,3.52-2.19,5.54-6.92,5.54h-8Zm7.51,8.21c1.57,0,2.87-.78,2.87-2.67a2.19,2.19,0,0,0-2.48-2.44H133v5.11Zm.22,8.72c1.52,0,3.1-.68,3.1-2.76,0-1.51-.65-2.86-3-2.86H133v5.62Z" transform="translate(-1.2 -4.25)"/><path class="cls-1" d="M147.2,35.31h4.22v20H147.2Z" transform="translate(-1.2 -4.25)"/><path class="cls-1" d="M159.18,38.63H153.7V35.31h15.18v3.32H163.4v16.7h-4.22Z" transform="translate(-1.2 -4.25)"/><path class="cls-2" d="M67.24,61.56a.49.49,0,1,1,.47-.48A.48.48,0,0,1,67.24,61.56Zm-.36,5.67V62.42h.68v4.81Z" transform="translate(-1.2 -4.25)"/><path class="cls-2" d="M72.2,67.23V64.42c0-1-.37-1.5-1.14-1.5s-1.19.45-1.19,1.5v2.81h-.68V62.42h.68V63a1.58,1.58,0,0,1,1.33-.69c1,0,1.68.6,1.68,2v2.93Z" transform="translate(-1.2 -4.25)"/><path class="cls-2" d="M77.44,67.23V64.42c0-1-.36-1.5-1.13-1.5s-1.19.45-1.19,1.5v2.81h-.69V62.42h.69V63a1.55,1.55,0,0,1,1.33-.69c1,0,1.68.6,1.68,2v2.93Z" transform="translate(-1.2 -4.25)"/><path class="cls-2" d="M81.49,67.33c-1.17,0-2.07-.87-2.07-2.5s.94-2.51,2.11-2.51,2.07.85,2.07,2.47S82.66,67.33,81.49,67.33Zm0-4.41c-.83,0-1.39.63-1.39,1.89s.56,1.92,1.39,1.92,1.4-.65,1.4-1.92S82.34,62.92,81.51,62.92Z" transform="translate(-1.2 -4.25)"/><path class="cls-2" d="M86.85,67.23h-.6l-1.73-4.81h.74l1.22,3.78.08.23.07-.23,1.23-3.78h.71Z" transform="translate(-1.2 -4.25)"/><path class="cls-2" d="M92.51,67.23v-.59a2,2,0,0,1-1.5.69,1.42,1.42,0,0,1-1.54-1.54c0-1.08.89-1.53,1.84-1.53a2.54,2.54,0,0,1,1.2.27V64a.93.93,0,0,0-1.05-1.06,2.47,2.47,0,0,0-1.3.37l-.26-.56a3.42,3.42,0,0,1,1.61-.39c1,0,1.68.44,1.68,1.56v3.35Zm0-2.15a2.27,2.27,0,0,0-1.24-.28c-.7,0-1.12.34-1.12,1a.9.9,0,0,0,1,1,1.68,1.68,0,0,0,1.38-.72Z" transform="translate(-1.2 -4.25)"/><path class="cls-2" d="M95.62,63v3.13c0,.43.12.58.49.58a1.6,1.6,0,0,0,.67-.14l0,.6a2.36,2.36,0,0,1-.89.16c-.59,0-.91-.29-.91-1.09V63h-.6v-.58h.6V60.94l.68-.38v1.86h1.19V63Z" transform="translate(-1.2 -4.25)"/><path class="cls-2" d="M98.61,61.56a.49.49,0,1,1,.47-.48A.48.48,0,0,1,98.61,61.56Zm-.36,5.67V62.42h.69v4.81Z" transform="translate(-1.2 -4.25)"/><path class="cls-2" d="M102.37,67.33c-1.17,0-2.07-.87-2.07-2.5s.94-2.51,2.11-2.51,2.07.85,2.07,2.47S103.54,67.33,102.37,67.33Zm0-4.41c-.83,0-1.39.63-1.39,1.89s.56,1.92,1.39,1.92,1.4-.65,1.4-1.92S103.22,62.92,102.39,62.92Z" transform="translate(-1.2 -4.25)"/><path class="cls-2" d="M108.81,67.23V64.42c0-1-.37-1.5-1.14-1.5s-1.19.45-1.19,1.5v2.81h-.68V62.42h.68V63a1.58,1.58,0,0,1,1.33-.69c1,0,1.68.6,1.68,2v2.93Z" transform="translate(-1.2 -4.25)"/><path class="cls-2" d="M117.44,67.23l-.51-.66a2.35,2.35,0,0,1-1.72.76c-1.41,0-1.93-.79-1.93-1.72s.53-1.43,1.42-1.92l-.23-.3a2,2,0,0,1-.54-1.29c0-.8.62-1.38,1.63-1.38a2.57,2.57,0,0,1,1.7.58l-.38.58a2,2,0,0,0-1.33-.52c-.57,0-.92.28-.92.71A1.37,1.37,0,0,0,115,63L117,65.48a6.54,6.54,0,0,0,.44-1.12l.63.2a5.57,5.57,0,0,1-.65,1.47l.92,1.2Zm-2.37-3.06c-.7.37-1.09.8-1.09,1.42a1.11,1.11,0,0,0,1.25,1.1,1.74,1.74,0,0,0,1.32-.61Z" transform="translate(-1.2 -4.25)"/><path class="cls-2" d="M122.27,61.56a.49.49,0,1,1,.48-.48A.49.49,0,0,1,122.27,61.56Zm-.35,5.67V62.42h.68v4.81Z" transform="translate(-1.2 -4.25)"/><path class="cls-2" d="M127.23,67.23V64.42c0-1-.36-1.5-1.13-1.5s-1.19.45-1.19,1.5v2.81h-.69V62.42h.69V63a1.55,1.55,0,0,1,1.33-.69c1,0,1.68.6,1.68,2v2.93Z" transform="translate(-1.2 -4.25)"/><path class="cls-2" d="M130.35,63v3.13c0,.43.12.58.48.58a1.62,1.62,0,0,0,.68-.14l0,.6a2.4,2.4,0,0,1-.89.16c-.6,0-.92-.29-.92-1.09V63h-.59v-.58h.59V60.94l.69-.38v1.86h1.19V63Z" transform="translate(-1.2 -4.25)"/><path class="cls-2" d="M136.56,65.06h-3.2c.07,1,.55,1.67,1.34,1.67a2.16,2.16,0,0,0,1.33-.45l.31.49a2.79,2.79,0,0,1-1.72.56c-.87,0-1.94-.64-1.94-2.53,0-1.52.84-2.48,2-2.48s1.93,1,1.93,2.36A1.94,1.94,0,0,1,136.56,65.06Zm-1.91-2.14c-.71,0-1.21.51-1.29,1.58H136C135.9,63.57,135.49,62.92,134.65,62.92Z" transform="translate(-1.2 -4.25)"/><path class="cls-2" d="M138,67.23V60.94l.68-.38v6.67Z" transform="translate(-1.2 -4.25)"/><path class="cls-2" d="M140.33,67.23V60.94l.69-.38v6.67Z" transform="translate(-1.2 -4.25)"/><path class="cls-2" d="M143,61.56a.49.49,0,1,1,.48-.48A.49.49,0,0,1,143,61.56Zm-.36,5.67V62.42h.69v4.81Z" transform="translate(-1.2 -4.25)"/><path class="cls-2" d="M146.15,69l-.22-.53c1.61,0,2-.46,2-1.58v-.25a1.9,1.9,0,0,1-1.44.69c-1,0-1.72-.73-1.72-2.43s.8-2.58,1.81-2.58a1.72,1.72,0,0,1,1.35.64v-.54h.69V66.8C148.59,68.25,147.94,68.94,146.15,69Zm1.75-5.36a1.56,1.56,0,0,0-1.3-.72c-.79,0-1.19.68-1.19,2s.46,1.83,1.22,1.83A1.63,1.63,0,0,0,147.9,66Z" transform="translate(-1.2 -4.25)"/><path class="cls-2" d="M153.8,65.06h-3.2c.06,1,.55,1.67,1.33,1.67a2.16,2.16,0,0,0,1.33-.45l.32.49a2.83,2.83,0,0,1-1.72.56c-.88,0-2-.64-2-2.53,0-1.52.84-2.48,2-2.48s1.93,1,1.93,2.36A1.94,1.94,0,0,1,153.8,65.06Zm-1.91-2.14c-.72,0-1.21.51-1.29,1.58h2.59C153.13,63.57,152.73,62.92,151.89,62.92Z" transform="translate(-1.2 -4.25)"/><path class="cls-2" d="M158.18,67.23V64.42c0-1-.37-1.5-1.14-1.5s-1.19.45-1.19,1.5v2.81h-.68V62.42h.68V63a1.58,1.58,0,0,1,1.33-.69c1,0,1.68.6,1.68,2v2.93Z" transform="translate(-1.2 -4.25)"/><path class="cls-2" d="M163.33,63.4a1.57,1.57,0,0,0-1.15-.48c-.75,0-1.33.68-1.33,1.87s.51,1.94,1.36,1.94a1.51,1.51,0,0,0,1.11-.51l.41.44a2.05,2.05,0,0,1-1.55.67c-1.05,0-2-.81-2-2.48s1.06-2.53,2.07-2.53a2.24,2.24,0,0,1,1.52.57Z" transform="translate(-1.2 -4.25)"/><path class="cls-2" d="M168.64,65.06h-3.21c.07,1,.55,1.67,1.34,1.67a2.16,2.16,0,0,0,1.33-.45l.32.49a2.83,2.83,0,0,1-1.72.56c-.88,0-1.95-.64-1.95-2.53,0-1.52.84-2.48,2-2.48s1.93,1,1.93,2.36A3.63,3.63,0,0,1,168.64,65.06Zm-1.92-2.14c-.71,0-1.21.51-1.29,1.58H168C168,63.57,167.56,62.92,166.72,62.92Z" transform="translate(-1.2 -4.25)"/><rect class="cls-3" x="34.02" width="8.5" height="8.5"/><rect class="cls-3" x="34.02" y="17.01" width="8.5" height="8.5"/><rect class="cls-4" x="25.51" y="17.01" width="8.5" height="8.5"/><rect class="cls-2" x="17.01" y="17.01" width="8.5" height="8.5"/><rect class="cls-5" x="34.02" y="25.51" width="8.5" height="8.5"/><rect class="cls-6" x="25.51" y="25.51" width="8.5" height="8.5"/><rect class="cls-7" x="17.01" y="25.51" width="8.5" height="8.5"/><rect class="cls-8" x="34.02" y="34.02" width="8.5" height="8.5"/><rect class="cls-9" x="25.51" y="34.02" width="8.5" height="8.5"/><rect class="cls-10" x="17.01" y="34.02" width="8.5" height="8.5"/><rect class="cls-11" x="34.02" y="42.52" width="8.5" height="8.5"/><rect class="cls-9" x="42.52" y="34.02" width="8.5" height="8.5"/><rect class="cls-12" x="42.52" y="42.52" width="8.5" height="8.5"/><rect class="cls-13" x="25.51" y="42.52" width="8.5" height="8.5"/><rect class="cls-14" x="17.01" y="42.52" width="8.5" height="8.5"/><rect class="cls-15" x="8.5" y="42.52" width="8.5" height="8.5"/><rect class="cls-8" x="34.02" y="51.02" width="8.5" height="8.5"/><rect class="cls-13" x="25.51" y="51.02" width="8.5" height="8.5"/><rect class="cls-7" x="17.01" y="51.02" width="8.5" height="8.5"/><rect class="cls-16" x="34.02" y="59.53" width="8.5" height="8.5"/><rect class="cls-17" x="25.51" y="59.53" width="8.5" height="8.5"/><rect class="cls-18" x="17.01" y="59.53" width="8.5" height="8.5"/><rect class="cls-19" x="8.5" y="59.53" width="8.5" height="8.5"/><rect class="cls-19" x="8.5" y="68.03" width="8.5" height="8.5"/><rect class="cls-18" y="59.53" width="8.5" height="8.5"/><rect class="cls-2" y="17.01" width="8.5" height="8.5"/></svg>